<?xml version="1.0" encoding="UTF-8"?>
<!DOCTYPE svg PUBLIC "-//W3C//DTD SVG 1.1//EN" "http://www.w3.org/Graphics/SVG/1.1/DTD/svg11.dtd">
<!-- Creator: CorelDRAW -->
<svg xmlns="http://www.w3.org/2000/svg" xml:space="preserve" width="210mm" height="297mm" version="1.1" style="shape-rendering:geometricPrecision; text-rendering:geometricPrecision; image-rendering:optimizeQuality; fill-rule:evenodd; clip-rule:evenodd"
viewBox="0 0 21000 29700"
 xmlns:xlink="http://www.w3.org/1999/xlink"
 xmlns:xodm="http://www.corel.com/coreldraw/odm/2003">
 <defs>
  <style type="text/css">
   <![CDATA[
    .fil2 {fill:#0E0F10}
    .fil1 {fill:#101212}
    .fil3 {fill:#D1D6D4}
    .fil0 {fill:#D2D7D4}
   ]]>
  </style>
 </defs>
 <g id="Capa_x0020_1">
  <metadata id="CorelCorpID_0Corel-Layer"/>
  <path class="fil0" d="M10249.69 14988.96c127.42,-154.41 500.56,-72.97 522.55,-55.69 157.95,214.6 -66.64,400.68 -236.97,488.71 -181.63,-92.52 -308.11,-206.49 -285.58,-433.02zm450.84 -338.15c-15.32,-163.56 340.68,-305.94 382.22,-492.69l-71.61 -62.78c-199.9,22.07 -711.64,716.31 -884.03,779.81 -11.44,-147.77 15.48,-252.2 -39,-401.05l-137.18 7.69c-104.18,148.5 -65.12,651.44 32.01,814.96 119.16,200.61 342.25,338.32 586.25,323.24 265.31,-16.39 394.31,-195.85 553.75,-358.7 210.85,-215.34 410.88,-350.08 394.34,-514.56 -190.86,-80.31 -274.86,195.13 -450.05,270.27 28.92,-225.62 461.05,-372.87 441.65,-613.77 -261.32,-69.26 -412.72,463.88 -634.4,420.5 30.88,-226.77 576.73,-391.21 483.68,-657.49 -245.56,-41.86 -438.3,477.67 -657.63,484.57z"/>
  <path class="fil1" d="M10700.53 14650.81c219.33,-6.9 412.07,-526.43 657.63,-484.57 93.05,266.28 -452.8,430.72 -483.68,657.49 221.68,43.38 373.08,-489.76 634.4,-420.5 19.4,240.9 -412.73,388.15 -441.65,613.77 175.19,-75.14 259.19,-350.58 450.05,-270.27 16.54,164.48 -183.49,299.22 -394.34,514.56 -159.44,162.85 -288.44,342.31 -553.75,358.7 -244,15.08 -467.09,-122.63 -586.25,-323.24 -97.13,-163.52 -136.19,-666.46 -32.01,-814.96l137.18 -7.69c54.48,148.85 27.56,253.28 39,401.05 172.39,-63.5 684.13,-757.74 884.03,-779.81l71.61 62.78c-41.54,186.75 -397.54,329.13 -382.22,492.69zm810.26 -16.23c75.36,-146.1 93.8,-32.8 82.64,-243.87 -194.86,-204.47 -61.98,0.8 -164.71,-290.36 -149.06,-40.78 -117.74,-52.68 -255.03,19.59 -353.77,-342.4 -673,437.29 -954.99,560.3 -41.83,-199.83 -25,-320.7 -284.65,-290.29 -194.01,165.99 -152.33,701.35 -36.22,920.05 132.75,250.03 415.96,411.2 707.29,386.79 287.91,-24.12 470.87,-269.6 646.7,-447.78 177.74,-180.12 515.84,-393.44 258.97,-614.43z"/>
  <path class="fil2" d="M10535.22 15334.06c-234.65,-172.38 -341.78,-477.97 5.74,-295.45 116.05,-56.65 69.32,-79.74 167.79,-46.79 100.04,158.01 -48.67,248.74 -173.53,342.24zm-285.53 -345.1c-22.53,226.53 103.95,340.5 285.58,433.02 170.33,-88.03 394.92,-274.11 236.97,-488.71 -21.99,-17.28 -395.13,-98.72 -522.55,55.69z"/>
  <path class="fil3" d="M10535.22 15334.06c124.86,-93.5 273.57,-184.23 173.53,-342.24 -98.47,-32.95 -51.74,-9.86 -167.79,46.79 -347.52,-182.52 -240.39,123.07 -5.74,295.45z"/>
 </g>
</svg>
